<?xml version="1.0" encoding="UTF-8"?>
<svg width="32px" height="32px" viewBox="0 0 32 32" version="1.1" xmlns="http://www.w3.org/2000/svg" xmlns:xlink="http://www.w3.org/1999/xlink">
    <!-- Generator: Sketch 54.1 (76490) - https://sketchapp.com -->
    <title>icon-pipe-answer</title>
    <desc>Created with Sketch.</desc>
    <g id="icon-pipe-answer" stroke="none" stroke-width="1" fill="none" fill-rule="evenodd">
        <g id="Group" transform="translate(4.666667, 7.500000)" fill="#4A4A4A" fill-rule="nonzero">
            <polygon id="Combined-Shape" points="3.77777778 17 2.30926389e-14 17 2.30926389e-14 0 3.77777778 0 3.77777778 1.88888889 1.88888889 1.88888889 1.88888889 15.1111111 3.77777778 15.1111111"></polygon>
            <path d="M10.5924323,2.83037456 L6.13888889,14.1666667 L7.96079296,14.1666667 L8.86769631,11.7374612 L13.9285411,11.7374612 L14.8354444,14.1666667 L16.6573485,14.1666667 L12.2119025,2.83037456 L10.5924323,2.83037456 Z M11.4021674,4.99236743 L13.3293371,10.1179909 L9.47499769,10.1179909 L11.4021674,4.99236743 Z" id="Shape"></path>
            <polygon id="Combined-Shape" points="20.7777778 15.1111111 20.7777778 1.88888889 18.8888889 1.88888889 18.8888889 0 22.6666667 0 22.6666667 17 18.8888889 17 18.8888889 15.1111111"></polygon>
        </g>
    </g>
</svg>