<?xml version="1.0" encoding="UTF-8"?>
<svg width="32px" height="32px" viewBox="0 0 32 32" version="1.1" xmlns="http://www.w3.org/2000/svg" xmlns:xlink="http://www.w3.org/1999/xlink">
    <!-- Generator: Sketch 54.1 (76490) - https://sketchapp.com -->
    <title>icon-pipe-metadata</title>
    <desc>Created with Sketch.</desc>
    <g id="icon-pipe-metadata" stroke="none" stroke-width="1" fill="none" fill-rule="evenodd">
        <g id="Group" transform="translate(5.875000, 7.000000)" fill="#4A4A4A">
            <g id="Group-2" fill-rule="nonzero">
                <polygon id="Combined-Shape" points="3.7524075 16.8858337 7.54951657e-14 16.8858337 7.54951657e-14 -1.77635684e-15 3.7524075 -1.77635684e-15 3.7524075 1.87620375 1.87620375 1.87620375 1.87620375 15.00963 3.7524075 15.00963"></polygon>
                <polygon id="Combined-Shape" points="19.3762037 15.00963 19.3762037 1.87620375 17.5 1.87620375 17.5 -1.77635684e-15 21.2524075 -1.77635684e-15 21.2524075 16.8858337 17.5 16.8858337 17.5 15.00963"></polygon>
            </g>
            <g id="Group-3" transform="translate(5.833333, 2.916667)">
                <ellipse id="Oval" cx="5.10416667" cy="2.1875" rx="5.10416667" ry="2.1875"></ellipse>
                <path d="M0.00124822456,5.17259636 C0.000417516646,5.18884086 0,5.20512901 0,5.22145895 C0,6.42958184 2.28521326,7.40895895 5.10416667,7.40895895 C7.92312008,7.40895895 10.2083333,6.42958184 10.2083333,5.22145895 C10.2083333,5.18211022 10.2059091,5.14300415 10.2011213,5.10416667 C10.2059043,5.12548083 10.2083333,5.14724929 10.2083333,5.16947735 C10.2083333,5.50510289 10.2083333,6.0085412 10.2083333,6.67979229 C10.2083333,7.88791518 7.92312008,8.86729229 5.10416667,8.86729229 C2.28521326,8.86729229 0,7.88791518 0,6.67979229 C0,6.6714625 0,6.17526364 0,5.19119569 C0,5.18497607 0.000417857121,5.17877617 0.00124822456,5.17259636 Z" id="Combined-Shape"></path>
                <path d="M0.00124822456,2.98509636 C0.000417516646,3.00134086 0,3.01762901 0,3.03395895 C0,4.24208184 2.28521326,5.22145895 5.10416667,5.22145895 C7.92312008,5.22145895 10.2083333,4.24208184 10.2083333,3.03395895 C10.2083333,2.99461022 10.2059091,2.95550415 10.2011213,2.91666667 C10.2059043,2.93798083 10.2083333,2.95974929 10.2083333,2.98197735 C10.2083333,3.31760289 10.2083333,3.8210412 10.2083333,4.49229229 C10.2083333,5.70041518 7.92312008,6.67979229 5.10416667,6.67979229 C2.28521326,6.67979229 0,5.70041518 0,4.49229229 C0,4.4839625 0,3.98776364 0,3.00369569 C0,2.99747607 0.000417857121,2.99127617 0.00124822456,2.98509636 Z" id="Combined-Shape-Copy-2"></path>
                <path d="M0.00124822456,7.36009636 C0.000417516646,7.37634086 0,7.39262901 0,7.40895895 C0,8.61708184 2.28521326,9.59645895 5.10416667,9.59645895 C7.92312008,9.59645895 10.2083333,8.61708184 10.2083333,7.40895895 C10.2083333,7.36961022 10.2059091,7.33050415 10.2011213,7.29166667 C10.2059043,7.31298083 10.2083333,7.33474929 10.2083333,7.35697735 C10.2083333,7.69260289 10.2083333,8.1960412 10.2083333,8.86729229 C10.2083333,10.0754152 7.92312008,11.0547923 5.10416667,11.0547923 C2.28521326,11.0547923 0,10.0754152 0,8.86729229 C0,8.8589625 0,8.36276364 0,7.37869569 C0,7.37247607 0.000417857121,7.36627617 0.00124822456,7.36009636 Z" id="Combined-Shape-Copy"></path>
            </g>
        </g>
    </g>
</svg>