<?xml version="1.0" encoding="UTF-8"?>
<svg width="32px" height="32px" viewBox="0 0 32 32" version="1.1" xmlns="http://www.w3.org/2000/svg" xmlns:xlink="http://www.w3.org/1999/xlink">
    <!-- Generator: Sketch 54.1 (76490) - https://sketchapp.com -->
    <title>icon-pipe-variable</title>
    <desc>Created with Sketch.</desc>
    <g id="icon-pipe-variable" stroke="none" stroke-width="1" fill="none" fill-rule="evenodd">
        <g id="Group" transform="translate(5.000000, 7.500000)" fill="#4A4A4A" fill-rule="nonzero">
            <polygon id="Combined-Shape" points="3.66666667 16.5 -2.06501483e-14 16.5 -2.06501483e-14 0 3.66666667 0 3.66666667 1.83333333 1.83333333 1.83333333 1.83333333 14.6666667 3.66666667 14.6666667"></polygon>
            <polygon id="Combined-Shape" points="20.1666667 14.6666667 20.1666667 1.83333333 18.3333333 1.83333333 18.3333333 0 22 0 22 16.5 18.3333333 16.5 18.3333333 14.6666667"></polygon>
            <path d="M9.81243296,13.0246012 C9.13412769,13.0246012 8.75507474,12.745299 8.35607164,12.3861962 C8.05681932,12.106894 7.87726793,11.5083894 7.87726793,10.7303334 C7.87726793,10.0121278 8.05681932,9.23407173 8.3760218,8.51586615 C8.93462614,7.23905623 10.0119345,6.12184756 10.5306385,5.52334291 L10.4109376,5.38369182 C9.9720342,5.82259523 9.21392831,6.02209678 8.47577257,6.02209678 L7.49821498,6.02209678 C6.68025863,6.02209678 6.42090661,6.26149864 6.40095646,6.60065127 C6.42090661,6.86000329 6.85981002,7.07945499 7.03936142,7.17920577 C7.1790125,7.25900639 7.47826483,7.55825871 7.47826483,8.07696274 C7.47826483,8.59566677 7.23886297,8.8949191 6.60045801,8.8949191 C6.06180382,8.8949191 5.52314964,8.37621507 5.52314964,7.33880701 C5.52314964,6.52085065 6.02190351,5.68294415 6.30120568,5.36374167 C6.70020878,4.92483826 7.13911219,4.40613423 8.57552335,4.40613423 C11.0094423,4.40613423 11.2488441,4.30638345 11.4682958,4.30638345 C11.7276478,4.30638345 11.9271494,4.42608438 11.747598,4.70538655 C10.6503395,6.44105003 10.0917351,7.17920577 10.0917351,9.55327421 C10.0917351,10.8699844 10.6303893,11.5083894 11.1291432,11.5083894 C11.9869999,11.5083894 12.4857537,11.1692368 12.8049562,10.7103832 C13.6229126,9.53332406 13.802464,8.69541755 13.802464,7.27895654 C13.8623144,6.58070112 13.7226633,6.26149864 13.5032116,6.06199709 C13.4034609,5.96224632 13.2239095,5.58319337 13.2239095,5.32384136 C13.2239095,5.04453919 13.6029624,4.30638345 14.5605698,4.30638345 C15.3186757,4.30638345 15.6378782,5.14428996 15.6378782,6.00214663 C15.6378782,7.31885685 15.3984764,8.15676336 14.2014671,10.0919284 C13.2239095,11.6879408 11.6877475,13.0246012 9.81243296,13.0246012 Z" id="v"></path>
        </g>
    </g>
</svg>