<?xml version="1.0" encoding="UTF-8"?>
<svg width="41px" height="13px" viewBox="0 0 41 13" version="1.1" xmlns="http://www.w3.org/2000/svg" xmlns:xlink="http://www.w3.org/1999/xlink">
    <!-- Generator: Sketch 52 (66869) - http://www.bohemiancoding.com/sketch -->
    <title>unit</title>
    <desc>Created with Sketch.</desc>
    <g id="Page-1" stroke="none" stroke-width="1" fill="none" fill-rule="evenodd">
        <g id="unit" transform="translate(0.000000, 1.000000)">
            <rect id="Rectangle-6" stroke="#9B9B9B" transform="translate(20.500000, 5.830000) rotate(-180.000000) translate(-20.500000, -5.830000) " x="0.5" y="0.33" width="40" height="11" rx="1"></rect>
            <path d="M30.5,0.33 L30.5,11.33" id="Line-Copy" stroke="#9B9B9B" stroke-linecap="square" transform="translate(30.500000, 5.830000) rotate(-180.000000) translate(-30.500000, -5.830000) "></path>
            <path d="M38.2789066,3.29947997 L38.2789066,8.19075403 L37.2784951,8.19075403 L37.2784951,5.3775161 C37.2784951,5.31261212 37.2801736,5.24211402 37.2835307,5.16601969 C37.2868878,5.08992537 37.2930424,5.01271317 37.3019947,4.93438077 L36.0028024,7.44883806 C35.9625172,7.52717046 35.9082449,7.58647838 35.8399838,7.62676361 C35.7717227,7.66704884 35.693951,7.68719116 35.6066663,7.68719116 L35.4522404,7.68719116 C35.3649557,7.68719116 35.287184,7.66704884 35.2189229,7.62676361 C35.1506618,7.58647838 35.0963895,7.52717046 35.0561042,7.44883806 L33.756912,4.9276666 C33.7636262,5.00823706 33.7692213,5.08712779 33.7736974,5.16434115 C33.7781736,5.24155451 33.7804116,5.31261212 33.7804116,5.3775161 L33.7804116,8.19075403 L32.78,8.19075403 L32.78,3.29947997 L33.6461282,3.29947997 C33.6953657,3.29947997 33.7384479,3.30059899 33.775376,3.30283705 C33.8123041,3.30507512 33.8453151,3.31178923 33.87441,3.32297957 C33.9035049,3.33416991 33.9298018,3.35151468 33.9533015,3.3750144 C33.9768013,3.39851412 33.9997411,3.43152513 34.0221218,3.47404843 L35.281029,5.95493486 C35.3257904,6.03998146 35.3688725,6.12838384 35.4102768,6.22014465 C35.4516811,6.31190545 35.4914062,6.40590291 35.5294533,6.50213986 C35.5675005,6.40366485 35.6072256,6.30742935 35.6486299,6.21343047 C35.6900341,6.1194316 35.7342353,6.02991021 35.7812348,5.94486361 L37.0367849,3.47404843 C37.0591656,3.43152513 37.0821054,3.39851412 37.1056051,3.3750144 C37.1291049,3.35151468 37.1554018,3.33416991 37.1844967,3.32297957 C37.2135915,3.31178923 37.2466026,3.30507512 37.2835307,3.30283705 C37.3204588,3.30059899 37.363541,3.29947997 37.4127785,3.29947997 L38.2789066,3.29947997 Z" id="M" fill="#9B9B9B"></path>
        </g>
    </g>
</svg>