<?xml version="1.0" encoding="UTF-8"?>
<svg width="32px" height="32px" viewBox="0 0 32 32" version="1.1" xmlns="http://www.w3.org/2000/svg" xmlns:xlink="http://www.w3.org/1999/xlink">
    <!-- Generator: Sketch 53.2 (72643) - https://sketchapp.com -->
    <title>icon-lock</title>
    <desc>Created with Sketch.</desc>
    <g id="icon-lock" stroke="none" stroke-width="1" fill="none" fill-rule="evenodd">
        <path d="M18.58,12.68 L18.58,11 C18.58,10.5466644 18.4633345,10.120002 18.23,9.72 C17.9966655,9.319998 17.680002,9.0033345 17.28,8.77 C16.879998,8.5366655 16.4533356,8.42 16,8.42 C15.5466644,8.42 15.120002,8.5366655 14.72,8.77 C14.319998,9.0033345 14.0033345,9.319998 13.77,9.72 C13.5366655,10.120002 13.42,10.5466644 13.42,11 L13.42,12.68 L18.58,12.68 Z M16,20.18 C16.4533356,20.18 16.846665,20.013335 17.18,19.68 C17.513335,19.346665 17.68,18.9533356 17.68,18.5 C17.68,18.0466644 17.513335,17.653335 17.18,17.32 C16.846665,16.986665 16.4533356,16.82 16,16.82 C15.5466644,16.82 15.153335,16.986665 14.82,17.32 C14.486665,17.653335 14.32,18.0466644 14.32,18.5 C14.32,18.9533356 14.486665,19.346665 14.82,19.68 C15.153335,20.013335 15.5466644,20.18 16,20.18 Z M21,12.68 C21.4533356,12.68 21.846665,12.8399984 22.18,13.16 C22.513335,13.4800016 22.68,13.8666644 22.68,14.32 L22.68,22.68 C22.68,23.1333356 22.513335,23.5199984 22.18,23.84 C21.846665,24.1600016 21.4533356,24.32 21,24.32 L11,24.32 C10.5466644,24.32 10.153335,24.1600016 9.82,23.84 C9.486665,23.5199984 9.32,23.1333356 9.32,22.68 L9.32,14.32 C9.32,13.8666644 9.486665,13.4800016 9.82,13.16 C10.153335,12.8399984 10.5466644,12.68 11,12.68 L11.82,12.68 L11.82,11 C11.82,10.2399962 12.0066648,9.5400032 12.38,8.9 C12.7533352,8.2599968 13.2599968,7.7533352 13.9,7.38 C14.5400032,7.0066648 15.2399962,6.82 16,6.82 C16.7600038,6.82 17.4599968,7.0066648 18.1,7.38 C18.7400032,7.7533352 19.2466648,8.2599968 19.62,8.9 C19.9933352,9.5400032 20.18,10.2399962 20.18,11 L20.18,12.68 L21,12.68 Z" id="" fill="#4A4A4A" fill-rule="nonzero"></path>
    </g>
</svg>