
<svg width="32px" height="32px" viewBox="0 0 32 32" version="1.1" xmlns="http://www.w3.org/2000/svg" xmlns:xlink="http://www.w3.org/1999/xlink">
    <g id="Page-1" stroke="none" stroke-width="1" fill="none" fill-rule="evenodd">
        <g id="icon-sharing" fill="#4A4A4A" fill-rule="nonzero">
            <path d="M16,14.1830919 C16.7999165,14.1830919 17.6772312,14.2992071 18.6319703,14.5314409 C19.7157282,14.8023804 20.5930428,15.1636276 21.2639406,15.6151934 C22.0638571,16.1441705 22.4638094,16.737648 22.4638094,17.3956439 L22.4638094,18.0212726 L9.5361906,18.0212726 L9.5361906,17.3956439 C9.5361906,16.737648 9.93614287,16.1441705 10.7360594,15.6151934 C11.4069572,15.1636276 12.2842718,14.8023804 13.3680297,14.5314409 C14.3227688,14.2992071 15.2000835,14.1830919 16,14.1830919 Z M16,13.0227953 C15.4194154,13.0227953 14.8839954,12.8776513 14.393724,12.587359 C13.9034526,12.2970667 13.5131766,11.9067907 13.2228843,11.4165193 C12.932592,10.9262478 12.787448,10.3908279 12.787448,9.81024328 C12.787448,9.2296587 12.932592,8.68778788 13.2228843,8.18461457 C13.5131766,7.68144126 13.9034526,7.28471441 14.393724,6.99442212 C14.8839954,6.70412983 15.4194154,6.55898586 16,6.55898586 C16.5805846,6.55898586 17.1160046,6.70412983 17.606276,6.99442212 C18.0965474,7.28471441 18.4868234,7.68144126 18.7771157,8.18461457 C19.067408,8.68778788 19.212552,9.2296587 19.212552,9.81024328 C19.212552,10.3908279 19.067408,10.9262478 18.7771157,11.4165193 C18.4868234,11.9067907 18.0965474,12.2970667 17.606276,12.587359 C17.1160046,12.8776513 16.5805846,13.0227953 16,13.0227953 Z" id=""></path>
            <path d="M19.2474427,18.9461287 C19.8275311,18.9461287 20.3661765,19.0911487 20.8633951,19.3811928 C21.3606136,19.671237 21.7516495,20.0648625 22.0365143,20.5620811 C22.3213791,21.0592997 22.4638094,21.6031244 22.4638094,22.1935714 C22.4638094,22.7840185 22.3213791,23.3278432 22.0365143,23.8250618 C21.7516495,24.3222804 21.3606136,24.7159059 20.8633951,25.00595 C20.3661765,25.2959942 19.8275311,25.4410141 19.2474427,25.4410141 L16.6370581,25.4410141 L16.6370581,24.1979739 L19.2474427,24.1979739 C19.5996392,24.1979739 19.9311133,24.1073364 20.2418749,23.9260588 C20.5526365,23.7447812 20.7986525,23.4987653 20.9799301,23.1880037 C21.1612077,22.877242 21.2518451,22.5457679 21.2518451,22.1935714 C21.2518451,21.8413749 21.1612077,21.5099008 20.9799301,21.1991392 C20.7986525,20.8883776 20.5526365,20.6423617 20.2418749,20.4610841 C19.9311133,20.2798065 19.5996392,20.189169 19.2474427,20.189169 L16.6370581,20.189169 L16.6370581,18.9461287 L19.2474427,18.9461287 Z M13.4206914,22.8306296 L13.4206914,21.5565133 L18.5793086,21.5565133 L18.5793086,22.8306296 L13.4206914,22.8306296 Z M10.7481549,22.1935714 C10.7481549,22.5457679 10.8387923,22.877242 11.0200699,23.1880037 C11.2013475,23.4987653 11.4473635,23.7447812 11.7581251,23.9260588 C12.0688867,24.1073364 12.4003608,24.1979739 12.7525573,24.1979739 L15.3629419,24.1979739 L15.3629419,25.4410141 L12.7525573,25.4410141 C12.1724689,25.4410141 11.6338235,25.2959942 11.1366049,25.00595 C10.6393864,24.7159059 10.2483505,24.3222804 9.96348569,23.8250618 C9.67862088,23.3278432 9.5361906,22.7840185 9.5361906,22.1935714 C9.5361906,21.6031244 9.67862088,21.0592997 9.96348569,20.5620811 C10.2483505,20.0648625 10.6393864,19.671237 11.1366049,19.3811928 C11.6338235,19.0911487 12.1724689,18.9461287 12.7525573,18.9461287 L15.3629419,18.9461287 L15.3629419,20.189169 L12.7525573,20.189169 C12.4003608,20.189169 12.0688867,20.2798065 11.7581251,20.4610841 C11.4473635,20.6423617 11.2013475,20.8883776 11.0200699,21.1991392 C10.8387923,21.5099008 10.7481549,21.8413749 10.7481549,22.1935714 Z" id=""></path>
        </g>
    </g>
</svg>