<?xml version="1.0" encoding="UTF-8"?>
<svg width="628px" height="109px" viewBox="0 0 628 109" version="1.1" xmlns="http://www.w3.org/2000/svg" xmlns:xlink="http://www.w3.org/1999/xlink">
    <!-- Generator: Sketch 52.6 (67491) - http://www.bohemiancoding.com/sketch -->
    <title>Group 9</title>
    <desc>Created with Sketch.</desc>
    <g id="Home-Onboarding" stroke="none" stroke-width="1" fill="none" fill-rule="evenodd" opacity="0.432407924">
        <g id="Home-Duplicate-Start-Copy" transform="translate(-326.000000, -172.000000)">
            <g id="Group-14" transform="translate(326.500000, 123.000000)">
                <g id="Group-9" transform="translate(0.954102, 48.269531)">
                    <path d="M0.512847337,96.4638111 L624.754163,96.4638111" id="Line-2" stroke="#000000" stroke-width="2" stroke-linecap="square"></path>
                    <g id="Group-7" transform="translate(329.891073, 66.417969)" fill="#FFFFFF" fill-rule="nonzero" stroke="#000000" stroke-width="2">
                        <path d="M9.667927,-0.900593575 C12.2547378,-0.900593575 14.3570042,1.20167279 14.3570042,3.7884836 C14.3570042,6.37529441 12.2547378,8.47756077 9.667927,8.47756077 C7.08111618,8.47756077 4.97884982,6.37529441 4.97884982,3.7884836 C4.97884982,1.20167279 7.08111618,-0.900593575 9.667927,-0.900593575 Z" id="Path-Copy-2"></path>
                        <path d="M15.2792735,13.0808586 L15.2792735,38.8347167 C15.2792735,40.4042645 14.0042827,41.6792553 12.4347349,41.6792553 C11.0932201,41.6792553 9.96688993,40.7478282 9.667927,39.4971566 C9.36896406,40.7478282 8.24263387,41.6792553 6.90111912,41.6792553 C5.33157134,41.6792553 4.05658053,40.4042645 4.05658053,38.8347167 L4.05658053,24.4648275 C3.71442757,25.3621676 2.8452203,26.0006773 1.828638,26.0006773 C0.513636547,26.0006773 -0.554765938,24.9322749 -0.554765938,23.6172734 L-0.554765938,15.7779844 C-0.554765938,11.6657402 2.78887489,8.32209936 6.90111912,8.32209936 L16.7518774,8.32209936 C17.4600985,8.32209936 18.0965969,7.90229896 18.3754719,7.25139406 L20.1223094,3.17666971 C20.4634806,2.38117508 21.2436655,1.8662143 22.1093398,1.8662143 C22.8525051,1.8662143 23.5251102,2.23275153 23.9280492,2.85841254 C24.3292478,3.48231027 24.3850835,4.24632982 24.0788638,4.92171446 L24.0784304,4.92266913 L21.2110507,11.2292442 C20.9750409,11.7481815 20.5865431,12.1855631 20.0989746,12.4826529 L19.9063511,12.6000241 L19.6819938,12.6233388 L15.2792735,13.0808586 Z" id="Path-Copy-3"></path>
                    </g>
                    <path d="M403.50142,17.5748321 L389.300999,17.5748321 C386.746894,17.5748321 384.892578,15.8645163 384.892578,13.5049374 C384.892578,12.2165163 385.438262,11.1883058 386.55742,10.3798848 C386.16593,8.90420106 386.48225,7.33038309 387.413496,6.12055409 C388.344743,4.9107251 389.785216,4.20220674 391.311947,4.20304265 C391.705108,4.20332867 392.096864,4.24996636 392.479104,4.34199002 C393.813452,1.63782461 396.83566,0.2102023 399.771851,0.897062329 C402.708042,1.58392236 404.783374,4.20400674 404.779736,7.21946371 C404.779736,7.34830581 404.779736,7.47209529 404.779736,7.61104265 C407.232789,8.13904265 408.892578,10.0666216 408.892578,12.5222005 C408.892578,15.4022005 406.57342,17.5748321 403.50142,17.5748321 Z M391.311947,5.76935844 C390.192171,5.76928583 389.146293,6.32830271 388.524217,7.25938736 C387.902141,8.190472 387.786013,9.37067277 388.214683,10.4051479 L388.467315,11.0417795 L387.873631,11.3828321 C386.863104,11.9613584 386.448789,12.5954637 386.448789,13.5049374 C386.448789,15.2253584 387.921631,16.0110427 389.290894,16.0110427 L403.50142,16.0110427 C405.716999,16.0110427 407.326262,14.5432532 407.326262,12.5222005 C407.326262,10.6249374 405.921631,9.23799002 403.829841,9.05356897 L402.968368,8.9777795 L403.127525,8.12893739 C403.611497,5.60039408 402.063842,3.12642256 399.578361,2.45549515 C397.09288,1.78456773 394.510525,3.14368984 393.656368,5.57230581 L393.378473,6.35293739 L392.620578,6.02956897 C392.206148,5.85622412 391.761166,5.76774307 391.311947,5.76935844 Z" id="Shape" fill="#000000" fill-rule="nonzero"></path>
                    <path d="M555.616655,55.265625 L541.416234,55.265625 C538.862128,55.265625 537.007812,53.5553092 537.007812,51.1957303 C537.007812,49.9073092 537.553497,48.8790987 538.672655,48.0706776 C538.281165,46.5949939 538.597484,45.021176 539.528731,43.811347 C540.459977,42.601518 541.90045,41.8929996 543.427181,41.8938355 C543.820342,41.8941215 544.212099,41.9407592 544.594339,42.0327829 C545.928686,39.3286175 548.950894,37.9009952 551.887085,38.5878552 C554.823276,39.2747152 556.898608,41.8947996 556.89497,44.9102566 C556.89497,45.0390987 556.89497,45.1628882 556.89497,45.3018355 C559.348023,45.8298355 561.007812,47.7574145 561.007812,50.2129934 C561.007812,53.0929934 558.688655,55.265625 555.616655,55.265625 Z M543.427181,43.4601513 C542.307405,43.4600787 541.261528,44.0190956 540.639452,44.9501802 C540.017375,45.8812649 539.901247,47.0614656 540.329918,48.0959408 L540.582549,48.7325724 L539.988865,49.073625 C538.978339,49.6521513 538.564023,50.2862566 538.564023,51.1957303 C538.564023,52.9161513 540.036865,53.7018355 541.406128,53.7018355 L555.616655,53.7018355 C557.832234,53.7018355 559.441497,52.2340461 559.441497,50.2129934 C559.441497,48.3157303 558.036865,46.9287829 555.945076,46.7443618 L555.083602,46.6685724 L555.24276,45.8197303 C555.726732,43.2911869 554.179077,40.8172154 551.693595,40.146288 C549.208114,39.4753606 546.625759,40.8344827 545.771602,43.2630987 L545.493707,44.0437303 L544.735812,43.7203618 C544.321383,43.547017 543.8764,43.4585359 543.427181,43.4601513 Z" id="Shape-Copy-4" fill="#000000" fill-rule="nonzero"></path>
                    <path d="M118.556108,55.265625 L104.355687,55.265625 C101.801581,55.265625 99.9472656,53.5553092 99.9472656,51.1957303 C99.9472656,49.9073092 100.49295,48.8790987 101.612108,48.0706776 C101.220618,46.5949939 101.536937,45.021176 102.468184,43.811347 C103.399431,42.601518 104.839904,41.8929996 106.366634,41.8938355 C106.759795,41.8941215 107.151552,41.9407592 107.533792,42.0327829 C108.868139,39.3286175 111.890347,37.9009952 114.826538,38.5878552 C117.762729,39.2747152 119.838061,41.8947996 119.834424,44.9102566 C119.834424,45.0390987 119.834424,45.1628882 119.834424,45.3018355 C122.287476,45.8298355 123.947266,47.7574145 123.947266,50.2129934 C123.947266,53.0929934 121.628108,55.265625 118.556108,55.265625 Z M106.366634,43.4601513 C105.246858,43.4600787 104.200981,44.0190956 103.578905,44.9501802 C102.956829,45.8812649 102.8407,47.0614656 103.269371,48.0959408 L103.522002,48.7325724 L102.928318,49.073625 C101.917792,49.6521513 101.503476,50.2862566 101.503476,51.1957303 C101.503476,52.9161513 102.976318,53.7018355 104.345581,53.7018355 L118.556108,53.7018355 C120.771687,53.7018355 122.38095,52.2340461 122.38095,50.2129934 C122.38095,48.3157303 120.976318,46.9287829 118.884529,46.7443618 L118.023055,46.6685724 L118.182213,45.8197303 C118.666185,43.2911869 117.11853,40.8172154 114.633049,40.146288 C112.147567,39.4753606 109.565212,40.8344827 108.711055,43.2630987 L108.43316,44.0437303 L107.675266,43.7203618 C107.260836,43.547017 106.815853,43.4585359 106.366634,43.4601513 Z" id="Shape-Copy-5" fill="#000000" fill-rule="nonzero"></path>
                    <g id="noun_Open-top-bus_1854700" transform="translate(255.091797, 56.265625)" fill="#000000">
                        <g id="Group">
                            <g>
                                <path d="M42,17 L37,17 C35.8954305,17 35,17.8954305 35,19 L35,23 C35,24.1045695 35.8954305,25 37,25 L42,25 C43.1045695,25 44,24.1045695 44,23 L44,19 C44,17.8954305 43.1045695,17 42,17 Z M42,23 L37,23 L37,19 L42,19 L42,23 Z" id="Shape" fill-rule="nonzero"></path>
                                <path d="M51,12 C52.1045695,12 53,11.1045695 53,10 L53,6 C53,4.8954305 52.1045695,4 51,4 L46,4 C44.8954305,4 44,4.8954305 44,6 L44,10 C44,11.1045695 44.8954305,12 46,12 L51,12 Z M46,6 L51,6 L51,10 L46,10 L46,6 Z" id="Shape" fill-rule="nonzero"></path>
                                <path d="M35,12 L40,12 C41.1045695,12 42,11.1045695 42,10 L42,6 C42,4.8954305 41.1045695,4 40,4 L35,4 C33.8954305,4 33,4.8954305 33,6 L33,10 C33,11.1045695 33.8954305,12 35,12 Z M35,6 L40,6 L40,10 L35,10 L35,6 Z" id="Shape" fill-rule="nonzero"></path>
                                <path d="M31,25 C32.1045695,25 33,24.1045695 33,23 L33,19 C33,17.8954305 32.1045695,17 31,17 L26,17 C24.8954305,17 24,17.8954305 24,19 L24,23 C24,24.1045695 24.8954305,25 26,25 L31,25 Z M26,19 L31,19 L31,23 L26,23 L26,19 Z" id="Shape" fill-rule="nonzero"></path>
                                <path d="M20,17 L15,17 C13.8954305,17 13,17.8954305 13,19 L13,23 C13,24.1045695 13.8954305,25 15,25 L20,25 C21.1045695,25 22,24.1045695 22,23 L22,19 C22,17.8954305 21.1045695,17 20,17 Z M20,23 L15,23 L15,19 L20,19 L20,23 Z" id="Shape" fill-rule="nonzero"></path>
                                <path d="M58.479,25.839 L57.95,25.707 L57.65,17.961 L57.15,4.808 C57.0467758,2.12183362 54.8381483,-0.00198262155 52.15,-1.77635684e-15 L32,-1.77635684e-15 C30.3431458,-1.77635684e-15 29,1.34314575 29,3 L29,7 L1,7 C0.44771525,7 6.76353751e-17,7.44771525 0,8 C-6.76353751e-17,8.55228475 0.44771525,9 1,9 L2,9 L2,12 C0.8954305,12 1.3527075e-16,12.8954305 0,14 L0,34 C2.02906125e-16,35.6568542 1.34314575,37 3,37 L12.09,37 C12.2792937,38.1171965 12.7821566,39.1576026 13.54,40 L54.46,40 C55.2178434,39.1576026 55.7207063,38.1171965 55.91,37 L58,37 C59.1045695,37 60,36.1045695 60,35 L60,27.78 C60.0018059,26.8594795 59.3732492,26.0573568 58.479,25.839 Z M55.689,19 L55.93,25.2 L48,23.22 L48,19 L55.689,19 Z M13,12 L13,9 L21,9 L21,12 L13,12 Z M23,9 L29,9 L29,12 L23,12 L23,9 Z M4,9 L11,9 L11,12 L4,12 L4,9 Z M2,34 L2,19 L5,19 L5,32 C5,32.5522847 5.44771525,33 6,33 C6.55228475,33 7,32.5522847 7,32 L7,19 L9,19 L9,35 L3,35 C2.44771525,35 2,34.5522847 2,34 Z M14,36 C14,33.790861 15.790861,32 18,32 C20.209139,32 22,33.790861 22,36 C22,38.209139 20.209139,40 18,40 C15.790861,40 14,38.209139 14,36 Z M44.09,37 C44.2792937,38.1171965 44.7821566,39.1576026 45.54,40 L22.46,40 C23.2178434,39.1576026 23.7207063,38.1171965 23.91,37 L44.09,37 Z M46,36 C46,33.790861 47.790861,32 50,32 C52.209139,32 54,33.790861 54,36 C54,38.209139 52.209139,40 50,40 C47.790861,40 46,38.209139 46,36 Z M58,35 L55.91,35 C55.4246693,32.1142545 52.9262729,30.0009562 50,30.0009562 C47.0737271,30.0009562 44.5753307,32.1142545 44.09,35 L23.91,35 C23.4246693,32.1142545 20.9262729,30.0009562 18,30.0009562 C15.0737271,30.0009562 12.5753307,32.1142545 12.09,35 L11,35 L11,19 C11,17.8954305 10.1045695,17 9,17 L2,17 L2,14 L29,14 C30.1045695,14 31,13.1045695 31,12 L31,3 C31,2.44771525 31.4477153,2 32,2 L52.15,2 C53.7640831,1.99887479 55.0897413,3.27504173 55.15,4.888 L55.611,17 L48,17 C46.8954305,17 46,17.8954305 46,19 L46,23.22 C45.9967529,24.1394747 46.6238691,24.9414559 47.517,25.16 L58,27.78 L58,35 Z" id="Shape" fill-rule="nonzero"></path>
                                <path d="M42,31 L26,31 C25.4477153,31 25,31.4477153 25,32 C25,32.5522847 25.4477153,33 26,33 L42,33 C42.5522847,33 43,32.5522847 43,32 C43,31.4477153 42.5522847,31 42,31 Z" id="Path"></path>
                            </g>
                        </g>
                    </g>
                </g>
            </g>
        </g>
    </g>
</svg>